<svg width="64" height="64" viewBox="0 0 64 64" fill="none" xmlns="http://www.w3.org/2000/svg">
  <defs>
    <linearGradient id="g" x1="10" y1="10" x2="54" y2="54" gradientUnits="userSpaceOnUse">
      <stop stop-color="#00D9FF"/>
      <stop offset="1" stop-color="#00FF88"/>
    </linearGradient>
    <filter id="s" x="-20%" y="-20%" width="140%" height="140%">
      <feDropShadow dx="0" dy="6" stdDeviation="6" flood-color="#00D9FF" flood-opacity="0.25"/>
    </filter>
  </defs>
  <g filter="url(#s)">
    <path d="M53.5 28.5L12.2 17.6C10.9 17.3 9.7 18.5 10.1 19.8L12.8 28.6L24.9 33.4L13.7 38.3L16.6 47.3C17 48.5 18.5 49.2 19.6 48.3L27.3 42.2L36.2 49.3C37.1 50 38.4 49.8 39.1 48.8L45.8 39.6L53.1 34.9C54.7 33.8 54.9 31.1 53.5 28.5Z" fill="url(#g)"/>
    <path d="M18.5 30.2L43.6 39.9" stroke="rgba(10,10,15,0.35)" stroke-width="2.6" stroke-linecap="round"/>
    <path d="M30.4 35.0L27.3 42.2" stroke="rgba(10,10,15,0.35)" stroke-width="2.6" stroke-linecap="round"/>
  </g>
</svg>
